<svg xmlns="http://www.w3.org/2000/svg" viewBox="0 0 221.6 64"><g id="Layer_2" data-name="Layer 2"><g id="Layer_1-2" data-name="Layer 1"><path d="M161.34,18.59c.92,0,1.4-.36,1.42-.83-.72-.51-1.14-2.27-1.14-4.37,0-1.14,0-2.85,0-3.49a3,3,0,0,0-3-3c-3,0-4.42,4.56-5.2,7.72-.09-1.26-.12-2.58-.12-3.86,0-3.67.23-6.91.4-8.78a1.37,1.37,0,0,0-1.24-.53,1.91,1.91,0,0,0-1.87,1.06,33.81,33.81,0,0,0-.56,7c0,.7,0,1.35,0,2A9.38,9.38,0,0,1,146.46,17c0-.42,0-.84,0-1.28,0-1.49-.08-3.61-.08-5.46,0-1.31,0-2.43.05-3.18-.11-.37-.78-.56-1.42-.56s-1.57.25-1.71.86a7.18,7.18,0,0,0-.17,1.21,4.64,4.64,0,0,0-3.72-1.85c-2.93,0-4.69,2.88-4.69,5.68a5.82,5.82,0,0,0,.07.93c-.77,2.45-1.77,4-2.56,4s-1.2-2.35-1.2-4.76a50,50,0,0,1,.31-5.5c0-.45-.7-.7-1.43-.7a1.78,1.78,0,0,0-1.82,1,16.23,16.23,0,0,0-.31,2.9c-.64,3.3-2,6.49-3.3,6.49-1,0-1.28-1.93-1.28-4.22a42.67,42.67,0,0,1,.33-4.92c-.11-.39-.84-.67-1.53-.67a1.63,1.63,0,0,0-1.63.86,18.44,18.44,0,0,0-.47,4.2,4.9,4.9,0,0,1-4.19,3.19,14,14,0,0,0,1.14-5.71c0-4.89-2.35-9.45-6.74-9.45-3.27,0-4.92,2.24-5.28,5-2.13.11-2.91,2.74-2.91,5.39a12.77,12.77,0,0,0,.13,1.79c-.8,3.23-2,5.43-3.2,5.43-.84,0-1.18-1.09-1.18-2.71a37.73,37.73,0,0,1,.7-6c.17-1.26-.78-2.15-3.13-2.15a17.74,17.74,0,0,0-2.91.28A1.23,1.23,0,0,0,91.16,6a1,1,0,0,0-1.09,1A1.34,1.34,0,0,0,91.3,8.33v.31a18.3,18.3,0,0,1-.2,2.24h0C90.24,15,89,17.34,87.89,17.34s-1.15-1.77-1.15-3.5c0-1.42.14-3.47.14-4.14a2.93,2.93,0,0,0-3.21-2.82c-2.72,0-4.2,4.47-5,7.69-.08-1.26-.11-2.57-.11-3.83,0-3.64.23-6.91.42-8.78a1.45,1.45,0,0,0-1.28-.53,1.88,1.88,0,0,0-1.85,1.06v0a4.94,4.94,0,0,1-1.64.23,10.23,10.23,0,0,1-2.93-.5L71.31.7C71.17.39,70.61.2,70,.2a1.87,1.87,0,0,0-1.9,1.09s0,0,0,.05a12.78,12.78,0,0,0-2.43-.25c-4,0-5.51,2.27-5.51,3.75,0,.86.47,1.42,1.14,1.42a1.08,1.08,0,0,0,.7-.19c0-.42-.39-3.86,3.78-3.86a10.26,10.26,0,0,1,2.12.25c-.14,1.34-.19,3.41-.19,5.68,0,4.39.22,9.28.81,10.45a1.56,1.56,0,0,0,1.48.82,1.49,1.49,0,0,0,1.48-.9c-.22-1.68-.31-6-.31-9.23,0-2.09,0-4.22.09-5.87a11.64,11.64,0,0,0,3,.45,9.87,9.87,0,0,0,1.35-.09,50.61,50.61,0,0,0-.32,5.71c0,3.52.28,6.29.84,7.41A1.88,1.88,0,0,0,77.77,18a1.32,1.32,0,0,0,1.2-.53c.64-3.25,2.6-9.23,4.08-9.23.53,0,.64.67.64,1.56,0,1.21-.25,3-.25,4.45,0,2.77,1.6,4.31,3.81,4.31s3.71-2,4.72-7.08h0a30.56,30.56,0,0,0,.48-3.27,22,22,0,0,1,2.34-.14h.67a22,22,0,0,0-1.11,6.29c0,3,1.39,4.53,3.74,4.53,2,0,3.45-1.37,4.49-4.75a7.3,7.3,0,0,0,7.12,5.09,6.2,6.2,0,0,0,5.37-2.88A6.25,6.25,0,0,0,120,14a7.15,7.15,0,0,0,.36,1.74A3.6,3.6,0,0,0,123.84,18c1.74,0,3.08-1.34,4-4.42.31,2.88,1.45,4.95,3.89,4.95,1.3,0,2.57-1,3.55-3.47a4.65,4.65,0,0,0,4,3.1c2.43,0,3.55-2.65,4.05-5,0,.75.06,1.51.06,2.21,0,1.26-.06,2.37-.14,3.38-2.83,1.2-5.37,1.82-5.37,4,0,1.56,1.29,2.4,2.85,2.4,2.91,0,5-3,5.56-6.82a9.69,9.69,0,0,0,3.93-4.3,9.9,9.9,0,0,0,.63,2.82A1.86,1.86,0,0,0,152.56,18a1.3,1.3,0,0,0,1.17-.53c.64-3.28,2.57-9.23,4.06-9.23.5,0,.64.67.64,1.68s-.09,2.82-.09,3.88C158.34,16.89,159.27,18.59,161.34,18.59Zm-50.89-.42c-3.16,0-4.67-3.71-4.84-7.88a9.44,9.44,0,0,0,7.83,6A3.39,3.39,0,0,1,110.45,18.17Zm3.52-3c-5.08-.51-7.57-5.74-7.57-9.65,0-2.41,1-4.39,3.21-4.39,3.22,0,5.06,4.84,5.06,9.59A12.72,12.72,0,0,1,114,15.16ZM139.84,17c-1.12,0-1.82-1.81-1.82-4.28s.67-4.83,2.18-4.83c1.06,0,2.43,1.26,2.94,2.6C142.46,13.56,141.29,17,139.84,17Zm.81,7.19A1.08,1.08,0,0,1,139.5,23c0-1.51,1.59-2.18,3.61-3C142.66,22.73,141.79,24.16,140.65,24.16ZM99.56,50.58a.45.45,0,0,0-.42.29c-1.3,6.55-3.06,10.45-5.07,10.45-1.43,0-1.93-1.6-1.93-5.21,0-3.94.59-11,.59-13.67,0-5.7-2.85-7.88-5.75-7.88-5.91,0-10,8.89-12,16.86-1.21,0-2.29,0-3,.08a1,1,0,0,0-.89-.84.45.45,0,0,0-.38.21c-1.3,6.21-3.19,9.69-4.82,9.69-1.43,0-1.77-2.64-1.77-5.24,0-2.14.26-5.2.26-6.21,0-2.64-2.23-4.24-4.79-4.24-4.06,0-6.37,7-7.63,11.83,0-1.38,0-3,0-4.74a63.13,63.13,0,0,1,.29-6.88c-.12-.5-.92-.79-1.8-.79A2.89,2.89,0,0,0,47.52,46a27,27,0,0,0-.46,5.7c-1.19,5.42-3,8.86-4.57,8.86s-2-3.4-2-7,.42-7.34.55-8.64c-.3-.63-1.39-1-2.48-1a2.36,2.36,0,0,0-2.3,1.13,13.3,13.3,0,0,0-.38,2.23A5.65,5.65,0,0,0,31.16,45c-5.62,0-7.88,5.2-7.88,9q0,.35,0,.69c-1,2.65-2.46,4.67-4.23,4.67-3,0-7.34-5.32-9.18-9.1C13.59,50,20,46.05,20,40.43c0-4.11-3.36-5.83-6.25-5.83s-6.13,2-8.39,4.91c0-1.72.08-3.11.12-3.9a2.33,2.33,0,0,0-2-.72,2.86,2.86,0,0,0-2.89,1.6C.21,38,0,42.11,0,46.76c0,6.59.38,13.93,1.26,15.69a2.3,2.3,0,0,0,2.18,1.21,2.18,2.18,0,0,0,2.22-1.34c-.29-2.18-.38-7.38-.42-11.87,1.6,3.9,6,11.2,12.21,11.2,3.22,0,5.2-1.94,6.44-4.39A7.37,7.37,0,0,0,30.57,62c3.44,0,4.91-3,5.5-6,.67,3.44,2.26,6.41,5.49,6.41,2.28,0,4.19-1.63,5.64-5.62a18.44,18.44,0,0,0,.36,3,3.11,3.11,0,0,0,3,2.23,2.34,2.34,0,0,0,1.8-.76c1-4.87,4-14.26,6.25-14.26.8,0,1,1,1,2.35,0,1.8-.37,4.57-.37,6.67,0,4.07,2.39,6.46,5.7,6.46,3.07,0,5.21-2.57,6.74-9l2.86-.08a40.42,40.42,0,0,0-1,7.64,2.37,2.37,0,0,0,2.52,2.31,1.11,1.11,0,0,0,.79-.26,94,94,0,0,1,1-9.73c3.32-.08,6.88-.16,9.15-.16v.5c0,4.07,1.21,9.56,6,9.56,3.61,0,5.75-3.06,7.38-11.36A1.15,1.15,0,0,0,99.56,50.58ZM5.24,48.78v-.3c0-2.3,0-4.61,0-6.63,2.31-3,5.5-5.24,7.6-5.24,1.67,0,2.3,1.13,2.3,2.9,0,4.15-3.86,9.43-8.51,9.43A7.33,7.33,0,0,1,5.24,48.78ZM31.37,60.23c-1.93,0-3.19-3.07-3.19-6.42S29.4,46.72,32,46.72c1.59,0,2.81,1.34,3.69,2.85C35.56,52.34,34.56,60.23,31.37,60.23Zm55.74-8.85H78.26c1.93-10.36,5.2-14.89,7.46-14.89,1.22,0,1.81,1.38,1.81,3.73C87.53,42.15,87.23,47.64,87.11,51.38Zm16.44-12.5c0,2.6-1.47,6-3.57,6a1.07,1.07,0,0,1-1.13-1A4.8,4.8,0,0,0,101,40.76a2.74,2.74,0,0,1-.63.09c-1,0-1.93-.71-1.93-2.22,0-1.35.75-3.07,2.56-3.07C102.16,35.56,103.55,36.4,103.55,38.88Zm21.64,11.66c-.09,0-.25.12-.34.33-.58,3.23-2.35,4.45-4.49,4.7a20,20,0,0,0-5.15-10.91c-.3-1.17-1.64-1.71-3.19-1.71s-3.11.62-3.11,1.59A.73.73,0,0,0,109,45c-.13,2.22-3.15,10.23-5.5,11.24a1.19,1.19,0,0,0,1.22,1.43,1.94,1.94,0,0,0,1-.34c.46,3.06,3.69,5.91,7.34,5.91a7.06,7.06,0,0,0,7.17-5.83c2.64-.16,4.91-1.51,5.91-5.57A1.14,1.14,0,0,0,125.19,50.54Zm-14.56-5.2A32.72,32.72,0,0,1,115.29,55c-2.52-.63-5-1.47-6.84-1.47h-.21A36.41,36.41,0,0,0,110.63,45.34Zm2,16.44c-2.52,0-4.41-2.56-4.41-4.87,0-1.21.59-1.63,1.55-1.63,1.39,0,3.53.79,5.79,1.42,0,.38.09.76.09,1.09C115.67,60.48,114.2,61.78,112.65,61.78Zm42.57-3.65c-2.52,0-8.6,3.1-10,3.73a25.17,25.17,0,0,1-.54-6.54c0-1.47,0-3.11.16-4.74,7.13-.84,11-6.21,11-10.86a4.78,4.78,0,0,0-5.07-5.12c-5.79,0-9.73,5.74-10.91,14-4.61-1.43-4.82-5.79-4.94-7.13a2.45,2.45,0,0,0-.63-.09,2,2,0,0,0-2.06,2.06c0,2.22,2.18,5.91,7.42,7-.08,1.09-.12,2.22-.12,3.36,0,7.84,2,10.23,4,10.23a2.93,2.93,0,0,0,1.88-.67,33.91,33.91,0,0,1,10.95-2.43.91.91,0,0,0,.84-1A1.81,1.81,0,0,0,155.22,58.13ZM151,36.28c1.59,0,2.56,1.13,2.56,3.18a9.67,9.67,0,0,1-8.6,9.48C145.53,42.53,147.16,36.28,151,36.28Zm65.84,11c-3.77,0-6.46,4.2-9.44,4.2-2,0-2.89-1.85-2.89-4.2,0-4.61,3.19-11,7.72-11,3.48,0,4,3.91,4.4,5.5a1.93,1.93,0,0,0,.63.12,2,2,0,0,0,1.93-2.18c0-2.26-2.68-5.11-7.76-5.11a11.68,11.68,0,0,0-12.12,11.49,8.42,8.42,0,0,0,1.35,4.67.65.65,0,0,0-.26-.06.45.45,0,0,0-.37.21c-1.3,6.21-3.19,9.69-4.83,9.69-1.42,0-1.76-2.64-1.76-5.24,0-2.14.25-5.2.25-6.21,0-2.64-2.22-4.24-4.78-4.24-4.07,0-6.37,7-7.63,11.83,0-1.38,0-3,0-4.74a63.13,63.13,0,0,1,.29-6.88c-.13-.5-.92-.79-1.8-.79a2.91,2.91,0,0,0-2.9,1.67,26.82,26.82,0,0,0-.46,5.68C175,57.47,172,61,168.68,61c-2.73,0-4.74-2.43-4.74-7.3,0-.63,0-1.21.08-1.8A5.92,5.92,0,0,0,167.59,53c2.6-.08,4.19-2.43,4.19-4.87a4.26,4.26,0,0,0-4.61-4.4c-4.87,0-8.14,4.74-8.14,10.23a8.45,8.45,0,0,0,8.77,8.9c4.35,0,7.06-2.92,8.66-6.66a22.8,22.8,0,0,0,.39,3.55,3.13,3.13,0,0,0,3,2.23,2.35,2.35,0,0,0,1.81-.76c1-4.87,4-14.26,6.25-14.26.79,0,1,1,1,2.35,0,1.8-.38,4.57-.38,6.67,0,4.07,2.39,6.46,5.71,6.46s5.53-3,7.09-10.61a2.36,2.36,0,0,0,0-.29,6.37,6.37,0,0,0,4.85,2c4.9,0,7.59-4.19,9.69-4.19,1,0,1.46.92,1.46,2.27,0,3.56-3.06,10.19-6.75,10.19-2.05,0-2.47-1.89-2.47-3.11a4.15,4.15,0,0,1,.08-.92,1.87,1.87,0,0,0-.88-.21,1.8,1.8,0,0,0-2,1.85c0,1.8,1.89,4.07,6,4.07,6.29,0,10.27-6.09,10.27-10.66C221.6,49.7,219.72,47.26,216.82,47.26Zm-49.28-2.09c1.09,0,1.81,1.17,1.81,2.68,0,1.68-.88,3.53-2.56,3.53a4.51,4.51,0,0,1-2.56-1.09C164.78,47.35,166,45.17,167.54,45.17Z"/></g></g></svg>