<svg xmlns="http://www.w3.org/2000/svg" viewBox="0 0 278 115.15"><defs><style>.cls-1{fill:#fff;}</style></defs><g id="Layer_2" data-name="Layer 2"><g id="Layer_1-2" data-name="Layer 1"><rect width="278" height="115.15"/><path class="cls-1" d="M138.36,88.34H46.45V26.81h91.91Zm9.53-41.67a5.24,5.24,0,0,0,3.51-1.06,3.68,3.68,0,0,0,1.26-3,3.83,3.83,0,0,0-1.28-3,5.08,5.08,0,0,0-3.46-1.13h-5v13h2.26V46.67Zm-2.68-6.35H148a2.48,2.48,0,0,1,1.77.65,2.21,2.21,0,0,1,.64,1.68,2.07,2.07,0,0,1-.63,1.63,2.67,2.67,0,0,1-1.84.57h-2.71ZM165,44.61a7.85,7.85,0,0,0-.67-3.33,5,5,0,0,0-1.9-2.2,5.56,5.56,0,0,0-5.63,0,5.09,5.09,0,0,0-1.9,2.23,7.86,7.86,0,0,0-.67,3.35v.73a7.66,7.66,0,0,0,.68,3.3,5.06,5.06,0,0,0,1.91,2.19,5.49,5.49,0,0,0,5.64,0,4.94,4.94,0,0,0,1.88-2.21,8,8,0,0,0,.66-3.35Zm-2.25.72a5.76,5.76,0,0,1-.81,3.34,2.89,2.89,0,0,1-4.62,0,5.6,5.6,0,0,1-.83-3.31v-.75a5.55,5.55,0,0,1,.84-3.24,2.87,2.87,0,0,1,4.6,0,5.64,5.64,0,0,1,.82,3.31Zm9.45,1.34a5.27,5.27,0,0,0,3.51-1.06,3.71,3.71,0,0,0,1.25-3,3.83,3.83,0,0,0-1.28-3,5.06,5.06,0,0,0-3.46-1.13h-5v13h2.26V46.67Zm-2.69-6.35h2.77A2.48,2.48,0,0,1,174,41a2.21,2.21,0,0,1,.64,1.68,2.07,2.07,0,0,1-.63,1.63,2.67,2.67,0,0,1-1.84.57H169.5Zm16.67-1.82v8.62c0,1.83-.87,2.74-2.6,2.74a2.61,2.61,0,0,1-1.95-.68,2.76,2.76,0,0,1-.66-2V38.5h-2.24v8.67a4.2,4.2,0,0,0,1.31,3.3,5.79,5.79,0,0,0,7.07,0,4.24,4.24,0,0,0,1.32-3.28V38.5Zm6.92,0h-2.26v13H199v-1.8h-5.89Zm16.13,13h2.35l-4.91-13h-2l-4.91,13h2.35l1.05-3h5Zm-3.58-10.24,1.88,5.39h-3.76Zm15.72-2.75H211.05v1.82h4V51.49h2.24V40.32h4.05Zm9.29,5.4h-5.33V40.32h6.17V38.5h-8.43v13h8.49v-1.8h-6.23v-4h5.33Zm-73,31.95V61.6h-1.41V75.85Zm4.1-5.53a4.53,4.53,0,0,0,2.26-.54,3.76,3.76,0,0,0,1.49-1.52,5.15,5.15,0,0,0,0-4.59A3.76,3.76,0,0,0,164,62.15a4.43,4.43,0,0,0-2.26-.55h-4.48v1.32h4.55a2.63,2.63,0,0,1,2,.83,3.17,3.17,0,0,1,.77,2.22,3.14,3.14,0,0,1-.77,2.2,2.64,2.64,0,0,1-2,.84h-4.55v1.31Zm7.08-8.72V75.85h1.41V61.6Zm5.22,14.25,4.35-6.72,4.87-7.53h-1.55l-4.11,6.34-5.12,7.91Zm9.44,0-5.05-7.7-.25-.39-4-6.16h-1.56l4.74,7.25.29.44,4.29,6.56Zm3.57,0V61.6h-1.42V75.85Zm7.74-12.93V61.6h-8.18v1.32Zm-1.08,6.51V68.12h-7.1v1.31Zm1.08,6.42V74.54h-8.18v1.31Zm4.25,0V61.6h-1.41V75.85Zm7.74,0V74.54h-8.15v1.31Zm10.11-.93a3.66,3.66,0,0,0,1.37-3v0a3.43,3.43,0,0,0-.39-1.73,3.13,3.13,0,0,0-1-1.06,6.07,6.07,0,0,0-1.47-.62c-.54-.15-1.08-.28-1.63-.39s-1.26-.27-1.84-.43a3.59,3.59,0,0,1-1.41-.7,1.65,1.65,0,0,1-.54-1.34h0a2.46,2.46,0,0,1,1-2.07,4.36,4.36,0,0,1,2.7-.73,5,5,0,0,1,1.75.32,7.53,7.53,0,0,1,1.8,1L218,63a8.09,8.09,0,0,0-2.15-1.13,7.08,7.08,0,0,0-2.23-.36,5.7,5.7,0,0,0-3.73,1.09,3.77,3.77,0,0,0-1.32,3.08h0a3.24,3.24,0,0,0,.43,1.78,2.93,2.93,0,0,0,1.14,1,7.28,7.28,0,0,0,1.57.57q.85.19,1.71.36t1.71.42a3.26,3.26,0,0,1,1.28.73,1.86,1.86,0,0,1,.49,1.37h0a2.38,2.38,0,0,1-1,2,4.84,4.84,0,0,1-2.85.72,6.74,6.74,0,0,1-2.33-.39,6.24,6.24,0,0,1-2-1.17l-.85,1.11a6.85,6.85,0,0,0,1.49,1,7.13,7.13,0,0,0,1.72.59A9.34,9.34,0,0,0,213,76,6.14,6.14,0,0,0,216.9,74.92Z"/><path d="M48.44,88.34V48.26l7.92-3.58V88.34Zm-2-42.45c13.3-9,27-8,31.61-1.72,2.81,3.85,2.07,11-.26,15.92a21.14,21.14,0,0,1-5.54,7A30.17,30.17,0,0,1,58.35,74v.6A43.94,43.94,0,0,0,73,69.87,29.09,29.09,0,0,0,83.07,62a19.73,19.73,0,0,0,3.85-7C88.2,50.45,88.09,44,84.57,39.7c-6.21-7.61-19.91-5.53-27.79-1.83A30.68,30.68,0,0,0,46.45,45.89ZM99.13,88.34V48.26l7.92-3.58V88.34Zm-2-42.45c13.3-9,27-8,31.61-1.72,2.81,3.85,2.07,11-.25,15.92a21.27,21.27,0,0,1-5.55,7A30.17,30.17,0,0,1,109,74v.6a43.85,43.85,0,0,0,14.61-4.75A29.09,29.09,0,0,0,133.76,62a19.88,19.88,0,0,0,3.86-7c1.28-4.47,1.16-10.91-2.36-15.22-6.21-7.61-19.9-5.53-27.79-1.83A30.79,30.79,0,0,0,97.14,45.89Z"/></g></g></svg>