<svg xmlns="http://www.w3.org/2000/svg" viewBox="0 0 211.29 181.16"><g id="Layer_2" data-name="Layer 2"><g id="Layer_1-2" data-name="Layer 1"><path d="M77.1,173.09a8.76,8.76,0,0,1,2.55,1,12.35,12.35,0,0,1-7.55,6.55,15.1,15.1,0,0,1-4.63.52c-.82,0-1.63-.08-2.43-.16-.39-.05-.79-.09-1.17-.15s-.75-.13-1.12-.21c-1.44-.29-2.71-.63-3.62-.88-.45-.13-.81-.27-1.05-.35l-.38-.14s.49-.28,1.29-.71,2-1.06,3.25-1.72,2.73-1.38,4.16-2a28,28,0,0,1,4.26-1.62c.32-.09.66-.16,1-.22l.47-.08.47-.08a11.52,11.52,0,0,1,1.72-.11A11.79,11.79,0,0,1,77.1,173.09Zm1.47-11.49a17,17,0,0,0-2.41-2.83,17.33,17.33,0,0,0-1.37-1.22L74.1,157l-.65-.53c-.86-.66-1.65-1.2-2.22-1.55l-.91-.61s0,.5,0,1.33a31.85,31.85,0,0,0,.29,3.25A32.58,32.58,0,0,0,71.5,163a16.38,16.38,0,0,0,1.67,3.77c.16.27.35.53.53.78a3.07,3.07,0,0,0,.29.34,2.89,2.89,0,0,0,.29.32,8.36,8.36,0,0,0,1.24,1,8.1,8.1,0,0,0,1.24.74,6.66,6.66,0,0,0,1.19.47,8.58,8.58,0,0,0,2.62.36,14.39,14.39,0,0,0,0-3.09,16.19,16.19,0,0,0-.59-2.95,26.23,26.23,0,0,0-.58-1.59A12.06,12.06,0,0,0,78.57,161.6ZM57,164.68l-.42-.37a9.76,9.76,0,0,0-2.79-1.7c-.43-.18-.92-.34-1.43-.5a11.91,11.91,0,0,0-3.63-.46c-.71,0-1.44,0-2.2.13s-1.54.18-2.32.31-1.6.28-2.37.43l-2.23.45c-1.42.3-2.68.59-3.58.81s-1.46.37-1.46.37.46.32,1.26.81c.39.25.87.54,1.41.85.26.16.56.32.86.48l.95.48c.67.31,1.38.62,2.11.92.38.14.74.29,1.13.42l.56.2.59.17a17.88,17.88,0,0,0,4.6.71,12.35,12.35,0,0,0,6.74-2.26,12.53,12.53,0,0,0,1.76-1.46c.39-.4.6-.66.6-.66Zm-4.07-8.57a9.19,9.19,0,0,0,1.57,3,6.06,6.06,0,0,0,1,1,10.23,10.23,0,0,0,1,.75,9.5,9.5,0,0,0,1.7.85,4.15,4.15,0,0,0,.52.15l.2,0s.13-.31.3-.82a17.92,17.92,0,0,0,.54-2.15,13.63,13.63,0,0,0-.21-6.43A13.23,13.23,0,0,0,58,149.16a23.86,23.86,0,0,0-2-2.91c-.34-.41-.63-.82-.92-1.18s-.54-.66-.77-.91c-.44-.51-.73-.79-.73-.79s-.14.48-.33,1.27-.43,1.92-.62,3.21c-.09.65-.19,1.34-.24,2s-.06,1.41,0,2.13a21.16,21.16,0,0,0,.13,2.12A12.71,12.71,0,0,0,52.89,156.11Zm-16.12-7.49a9.89,9.89,0,0,0-3.42-3.23A11.45,11.45,0,0,0,30,144c-.45-.12-.93-.22-1.41-.32s-1-.18-1.51-.26c-2.55-.39-5.44-.53-7.61-.67s-3.78-.14-3.78-.14.53.67,1.45,1.66a31.3,31.3,0,0,0,3.78,3.47l.71.54.38.27.38.25c.51.32,1,.64,1.57.93a15.6,15.6,0,0,0,1.6.77,10.16,10.16,0,0,0,1.6.56,12.39,12.39,0,0,0,7.12-.35,12.74,12.74,0,0,0,2.89-1.42S37,149,36.77,148.62Zm.95-3.31a7.53,7.53,0,0,0,1.39,1.27,4.37,4.37,0,0,0,.63.37,14.7,14.7,0,0,0,1.67-2.61,13.77,13.77,0,0,0,1.65-6.23,12.81,12.81,0,0,0-.26-2.68c-.09-.44-.2-.87-.33-1.31s-.22-.85-.36-1.27c-.22-.71-.47-1.39-.72-2-.06-.15-.13-.3-.18-.44s-.11-.29-.17-.43l-.31-.77c-.4-.93-.71-1.5-.71-1.5a33.88,33.88,0,0,0-1.69,3c-.23.45-.47.93-.7,1.45-.12.26-.23.52-.35.79s-.21.53-.32.81a24.9,24.9,0,0,0-1,3.45,12.77,12.77,0,0,0-.23,1.33,9.51,9.51,0,0,0,.56,4.56A8.74,8.74,0,0,0,37.72,145.31ZM17.81,129.57c.55,0,1.07,0,1.55,0a12.7,12.7,0,0,0,3.17-.57,6.28,6.28,0,0,0-.19-.72q-.11-.33-.3-.78a7.94,7.94,0,0,0-.43-1A10.07,10.07,0,0,0,20,124.24l-.56-.59c-.2-.19-.42-.39-.65-.58A13.48,13.48,0,0,0,17.2,122c-.6-.35-1.26-.69-2-1s-1.39-.64-2.12-1c-1.46-.6-3-1.15-4.39-1.63s-2.57-.89-3.45-1.17-1.42-.45-1.42-.45.2.52.58,1.34c.19.42.42.92.71,1.46s.65,1.12,1,1.73.8,1.25,1.25,1.89l.35.47.37.46c.25.31.52.61.78.9a21.88,21.88,0,0,0,1.68,1.66c.29.26.58.49.88.72s.62.41.94.6a12.16,12.16,0,0,0,3.69,1.38A11.76,11.76,0,0,0,17.81,129.57Zm5.67-6.77a8.66,8.66,0,0,0,.72,2.54,8.54,8.54,0,0,0,.49.92,5.18,5.18,0,0,0,.48.66,5.71,5.71,0,0,0,.5.54A15.77,15.77,0,0,0,28,125.4c.31-.33.62-.7.95-1.1s.65-.84,1-1.31a12.2,12.2,0,0,0,1.48-3.13c.09-.29.16-.58.23-.88s.13-.6.18-.9a14.32,14.32,0,0,0,.18-1.84c0-1.21,0-2.42-.05-3.47,0-.53-.09-1-.15-1.46s-.07-.85-.12-1.17c-.08-.66-.16-1-.16-1s-.39.32-1,.9-1.45,1.4-2.34,2.39a28.38,28.38,0,0,0-2.54,3.36,19.73,19.73,0,0,0-1.09,1.87,12.3,12.3,0,0,0-.74,1.85,9.85,9.85,0,0,0-.35,1.75,7.83,7.83,0,0,0-.05.82v.39C23.45,122.55,23.46,122.68,23.48,122.8ZM6.69,104.4a10.93,10.93,0,0,0,1.63.95,12.74,12.74,0,0,0,3.07,1,12.53,12.53,0,0,0,3.2.27A7.88,7.88,0,0,0,14.4,104a11.65,11.65,0,0,0-.35-1.23,9.45,9.45,0,0,0-.55-1.36,9.68,9.68,0,0,0-.87-1.44,9.18,9.18,0,0,0-.57-.74l-.32-.37q-.15-.18-.33-.36A47.67,47.67,0,0,0,4.3,92.88c-1.18-.82-2.25-1.52-3-2L0,90.06s.07.55.22,1.45S.61,93.65,1,95a33.91,33.91,0,0,0,1.62,4.29,11.65,11.65,0,0,0,.56,1c.2.33.4.66.62,1a12.77,12.77,0,0,0,1.38,1.73A9.54,9.54,0,0,0,6.69,104.4ZM18,106a16.08,16.08,0,0,0,2.87-1.38,16.13,16.13,0,0,0,2.51-1.82,12.47,12.47,0,0,0,1.2-1.21,13,13,0,0,0,1.12-1.42,12.76,12.76,0,0,0,.89-1.62c.26-.56.44-1.14.66-1.72a21.59,21.59,0,0,0,.91-3.37c.26-1,.4-2,.5-2.62s.11-1,.11-1-.46.21-1.21.61-1.75,1-2.88,1.71A27.63,27.63,0,0,0,21.3,94.7a17.59,17.59,0,0,0-2.8,3.12,7.83,7.83,0,0,0-.82,1.6,8.47,8.47,0,0,0-.42,1.52,9,9,0,0,0-.15,1.41,7.81,7.81,0,0,0,.11,1.23A7.64,7.64,0,0,0,18,106ZM3.77,71.09c.09.58.19,1.17.32,1.74A12.22,12.22,0,0,0,5.22,76a11.26,11.26,0,0,0,2.39,3.06,11.91,11.91,0,0,0,2.64,1.8,13,13,0,0,0,3,1.12,5.93,5.93,0,0,0,.23-.71,12.07,12.07,0,0,0,.34-1.87,9.39,9.39,0,0,0-.14-2.74,11,11,0,0,0-1.14-3.35c-.21-.4-.45-.81-.71-1.23-.12-.2-.26-.41-.4-.62l-.4-.63c-.71-1-1.5-2.1-2.3-3.11s-1.61-2-2.28-2.79c-1.37-1.66-2.41-2.81-2.41-2.81s-.16.85-.33,2.16a21.28,21.28,0,0,0-.16,2.3c0,.86,0,1.79,0,2.73A15.39,15.39,0,0,0,3.77,71.09Zm22.05,7.65c.18-.15.34-.3.5-.46l.49-.49a12.65,12.65,0,0,0,.9-1c.28-.35.55-.72.8-1.09s.49-.77.72-1.11c.41-.64.77-1.27,1.07-1.85q.24-.44.42-.84c.12-.27.27-.5.39-.73.46-.91.69-1.5.69-1.5a35,35,0,0,0-3.43.76c-.49.13-1.05.28-1.58.47s-1.1.38-1.66.6A27,27,0,0,0,21.76,73a13.13,13.13,0,0,0-2.18,1.53,8,8,0,0,0-2.9,5.19,6.84,6.84,0,0,0,0,1.84,4.26,4.26,0,0,0,.13.71,15.5,15.5,0,0,0,3.14-.56A15.17,15.17,0,0,0,25.82,78.74ZM14.54,53.6a12.38,12.38,0,0,0,2,2.46A12.09,12.09,0,0,0,19.14,58a7.15,7.15,0,0,0,.43-.61,11.94,11.94,0,0,0,.85-1.72A9.62,9.62,0,0,0,21.11,53a14.72,14.72,0,0,0,.06-1.66A10.42,10.42,0,0,0,21,49.44a20.74,20.74,0,0,0-.51-2.07c-.11-.35-.22-.72-.35-1.08l-.36-1.08c-.5-1.45-1.1-2.9-1.65-4.21l-.79-1.83-.64-1.44c-.36-.83-.59-1.32-.59-1.32s-.27.49-.66,1.32c-.21.4-.4.91-.63,1.48s-.45,1.21-.67,1.89l-.33,1c-.1.36-.21.72-.29,1.11-.16.75-.3,1.53-.41,2.3a18.2,18.2,0,0,0-.17,2.3A12.81,12.81,0,0,0,13.15,50,10.47,10.47,0,0,0,14.54,53.6Zm19.23,3.72a15.53,15.53,0,0,0,1.56-1.09c.49-.39,1-.79,1.38-1.19s.88-.79,1.26-1.17.74-.75,1-1.08l.43-.48.38-.4c.46-.5.71-.81.71-.81S40,51,39.16,51s-2.07-.11-3.4-.07a35.53,35.53,0,0,0-4.31.41l-1.11.21-1.05.28a14.58,14.58,0,0,0-1.93.71,9.71,9.71,0,0,0-1.6.91,7.51,7.51,0,0,0-1.21,1.07,8.92,8.92,0,0,0-1.5,2.21,6.83,6.83,0,0,0-.55,1.76,5.8,5.8,0,0,0-.09.72,16.1,16.1,0,0,0,3.18.31,17.61,17.61,0,0,0,3.11-.25,14,14,0,0,0,3.44-1A12.56,12.56,0,0,0,33.77,57.32ZM27.88,32a11.83,11.83,0,0,0,1.26,2.88,11.66,11.66,0,0,0,1.92,2.47A8.71,8.71,0,0,0,33,35.44a9.63,9.63,0,0,0,.71-1.08,10.48,10.48,0,0,0,1.53-4.75,24.45,24.45,0,0,0,0-4.37c-.12-1.56-.26-3.08-.42-4.48s-.35-2.63-.48-3.53-.22-1.43-.22-1.43a2.49,2.49,0,0,0-.28.29c-.16.2-.4.48-.7.83-.59.72-1.38,1.72-2.2,2.9a31.4,31.4,0,0,0-2.22,4,15.63,15.63,0,0,0-1.2,4.34c0,.35-.05.69-.05,1s0,.67.06,1A10.82,10.82,0,0,0,27.88,32Zm17.5,8.53.89-.32.44-.18.44-.18a23.41,23.41,0,0,0,3.21-1.6,26.1,26.1,0,0,0,2.34-1.4l.65-.45.25-.16-.34-.14c-.23-.08-.55-.2-.95-.32-.8-.27-1.93-.61-3.24-.92-.66-.16-1.36-.31-2.09-.43l-1.09-.18-1.1-.11a18.46,18.46,0,0,0-4.29.09,9.52,9.52,0,0,0-3.24,1.2,7.73,7.73,0,0,0-1.18.84,9,9,0,0,0-.87.9,7.65,7.65,0,0,0-1.33,2.21,16,16,0,0,0,3,1.13,17.23,17.23,0,0,0,3.08.58A15,15,0,0,0,43.53,41,13.13,13.13,0,0,0,45.38,40.52Zm3.43-21.43c.24.5.4.78.4.78l.19-.07c.13-.05.3-.12.52-.23a9.47,9.47,0,0,0,1.69-1,11.67,11.67,0,0,0,3.83-5,27.94,27.94,0,0,0,.91-2.72c.33-1.21.6-2.5.84-3.76s.47-2.42.65-3.47c.35-2.1.54-3.62.54-3.62s-.75.45-1.87,1.24c-.56.38-1.21.86-1.9,1.39S53.23,3.82,52.54,4.5c-.44.41-.85.84-1.26,1.29l-.3.33-.29.35-.54.72a14.76,14.76,0,0,0-1.71,2.93,9.64,9.64,0,0,0-.56,1.94,11.68,11.68,0,0,0-.18,1.82,11.56,11.56,0,0,0,.37,3.1A13.08,13.08,0,0,0,48.81,19.09Zm16.84,7.24c.77-.14,1.48-.32,2.14-.49s1.26-.31,1.76-.46c1-.29,1.62-.53,1.62-.53S70,24,68.29,22.93c-.87-.52-1.89-1.09-3-1.63A27.49,27.49,0,0,0,61.84,20a17.16,17.16,0,0,0-2.66-.57,8.93,8.93,0,0,0-5.93,1.42A8.47,8.47,0,0,0,51.79,22a3.27,3.27,0,0,0-.35.4,1,1,0,0,0-.11.16s.23.22.67.57a15,15,0,0,0,1.87,1.31,15.19,15.19,0,0,0,4.46,1.91,16.44,16.44,0,0,0,1.8.32A19.58,19.58,0,0,0,65.65,26.33ZM92.83,174.65,91,174.43c-.36-.05-.73-.07-1.12-.15l-1.23-.21-2.78-.48-3.06-.67c-.54-.13-1.08-.23-1.62-.38l-1.63-.44c-1.1-.31-2.23-.58-3.33-1a89.75,89.75,0,0,1-11.84-4.63l-2.12-1.05-.88-.43-.73-.4-1.39-.77-1.39-.77c-.87-.5-2.08-1.28-3.55-2.18a88,88,0,0,1-19-16.43c-.29-.3-.54-.63-.79-.93l-.7-.85-1.13-1.39c-.32-.38-.54-.71-.7-.92l-.25-.33-.92-1.25c-.29-.4-.67-.88-1.05-1.45l-1.29-1.93-.73-1.1c-.26-.38-.48-.79-.74-1.21-.5-.83-1-1.72-1.56-2.63s-1-1.9-1.53-2.87l-.4-.74c-.11-.26-.23-.51-.35-.76l-.72-1.53A79.12,79.12,0,0,1,18.2,113c-.12-.41-.24-.79-.35-1.16s-.21-.72-.28-1c-.16-.66-.31-1.24-.42-1.72-.22-1-.36-1.5-.36-1.5s0-.14-.1-.39l-.21-1.12c-.09-.48-.2-1.07-.32-1.74s-.29-1.43-.38-2.26-.23-1.74-.36-2.69l-.09-.72c0-.25,0-.5-.07-.75,0-.5-.08-1-.12-1.55-.22-2.09-.22-4.33-.29-6.56s.07-4.48.29-6.58c0-.52.09-1,.12-1.53,0-.26,0-.51.07-.75l.09-.73c.13-.95.25-1.86.36-2.69s.26-1.58.38-2.26.23-1.25.32-1.74.16-.86.21-1.11.1-.4.1-.4.14-.54.36-1.5c.11-.47.26-1.05.42-1.72.07-.33.17-.68.28-1.05s.23-.75.35-1.16A80,80,0,0,1,22.54,55c.24-.5.48-1,.72-1.53.12-.25.24-.5.35-.76L24,52c.52-1,1-1.94,1.53-2.87l1.56-2.63c.26-.41.48-.83.74-1.21l.73-1.1,1.29-1.93c.38-.57.76-1,1.05-1.45l.92-1.25.25-.33c.16-.21.38-.54.7-.91s.69-.86,1.13-1.39c.23-.27.45-.56.7-.86s.5-.62.79-.93a88.45,88.45,0,0,1,19-16.44C55.82,17.79,57,17,57.9,16.51l1.39-.77L60.68,15l.73-.4.88-.43.66-.33H63a16.42,16.42,0,0,0,2.29,0,15.18,15.18,0,0,0,6.45-1.65A14.44,14.44,0,0,0,74.82,10l1.33-1.27c.42-.41.81-.84,1.17-1.24.68-.82,1.32-1.53,1.74-2l.64-.86s-.52,0-1.37,0-2,0-3.4.12l-1.05.1-1.06.15c-.71.11-1.44.25-2.16.42a15.85,15.85,0,0,0-4,1.41A9.65,9.65,0,0,0,64,8.91a8.58,8.58,0,0,0-1.34,2.3A8.23,8.23,0,0,0,62.14,13c0,.09,0,.17,0,.24a1.42,1.42,0,0,1-.25.12l-.89.45-.74.41-1.4.77-1.41.77c-.87.51-2.1,1.29-3.59,2.21A95.29,95.29,0,0,0,43.65,25.6a97.71,97.71,0,0,0-8.95,9c-.29.31-.54.65-.79.94l-.7.87-1.15,1.4c-.32.39-.54.71-.71.93s-.24.33-.24.33l-.94,1.26c-.29.41-.67.89-1.06,1.47l-1.3,1.94c-.24.36-.49.73-.74,1.12s-.49.8-.75,1.22l-1.57,2.65c-.51.94-1,1.92-1.55,2.91l-.4.75-.36.76-.72,1.55a77.46,77.46,0,0,0-4.39,11.69c-.13.4-.24.79-.34,1.17a10.13,10.13,0,0,0-.3,1.06c-.16.67-.31,1.26-.41,1.74-.24,1-.37,1.51-.37,1.51s0,.14-.1.4-.12.64-.22,1.13-.2,1.08-.32,1.76-.29,1.43-.38,2.28-.24,1.75-.36,2.71c0,.25-.07.49-.1.74s0,.5-.07.75q0,.77-.12,1.56C14,85.27,14,87.53,14,89.8s.07,4.52.29,6.63q.07.79.12,1.56c0,.25,0,.51.07.75s.07.5.1.74c.12,1,.24,1.87.36,2.71s.26,1.61.38,2.29.24,1.26.32,1.75.16.87.22,1.13.1.4.1.4.13.55.37,1.51c.1.48.25,1.07.41,1.74a10.13,10.13,0,0,0,.3,1.06c.1.38.21.77.34,1.18a77.78,77.78,0,0,0,4.39,11.68l.72,1.55.36.76.4.75c.52,1,1,2,1.55,2.91l1.57,2.65c.26.42.49.83.75,1.22l.74,1.12c.47.71.91,1.37,1.3,1.94s.77,1.06,1.06,1.47l.94,1.26.24.34c.17.21.39.53.71.92l1.15,1.41.7.86c.25.29.5.63.79.94a97.71,97.71,0,0,0,8.95,9,98.3,98.3,0,0,0,10.19,7.64c1.49.91,2.72,1.69,3.59,2.2l1.41.77,1.4.77.74.41.89.44L64,167.28A91,91,0,0,0,76,172c1.11.38,2.25.66,3.37,1,.55.15,1.1.31,1.65.45s1.09.26,1.62.38l3.1.69c1,.16,1.94.32,2.8.48l1.24.21c.4.08.78.1,1.14.15l1.84.23,1.6.19.09-.86Zm41.35-1.56a8.61,8.61,0,0,0-2.54,1,12.37,12.37,0,0,0,7.54,6.55,15.24,15.24,0,0,0,4.64.52c.81,0,1.63-.08,2.42-.16.4-.05.8-.09,1.18-.15s.75-.13,1.11-.21c1.45-.29,2.72-.63,3.63-.88.46-.13.8-.27,1.05-.35l.38-.14s-.49-.28-1.29-.71-2-1.06-3.25-1.72-2.74-1.38-4.17-2a27.93,27.93,0,0,0-4.25-1.62c-.33-.09-.66-.16-1-.22l-.47-.08-.46-.08a11.74,11.74,0,0,0-1.73-.11A12,12,0,0,0,134.18,173.09Zm-2.29-9.9c-.12.26-.22.54-.32.81s-.19.52-.27.78a17,17,0,0,0-.58,2.95,14.87,14.87,0,0,0,0,3.09,8.66,8.66,0,0,0,2.63-.36,6.3,6.3,0,0,0,1.18-.47,8.18,8.18,0,0,0,1.25-.74,8.91,8.91,0,0,0,1.24-1c.1-.1.2-.21.29-.32s.2-.22.29-.34.36-.51.53-.78a16.37,16.37,0,0,0,1.66-3.77,28,28,0,0,0,.87-4.11,27,27,0,0,0,.29-3.25c0-.83,0-1.33,0-1.33s-.35.22-.91.61a25.72,25.72,0,0,0-2.22,1.55l-.65.53-.69.54c-.46.38-.93.78-1.38,1.22a16.44,16.44,0,0,0-2.4,2.83A12.06,12.06,0,0,0,131.89,163.19Zm22.3,1.62s.21.26.6.66a12.53,12.53,0,0,0,1.76,1.46,12.36,12.36,0,0,0,6.75,2.26,17.88,17.88,0,0,0,4.59-.71l.59-.17.56-.2c.38-.13.76-.28,1.12-.42.74-.3,1.45-.61,2.11-.92l1-.48.85-.48c.54-.31,1-.6,1.41-.85.79-.49,1.26-.81,1.26-.81l-1.45-.37c-.91-.22-2.18-.51-3.59-.81l-2.23-.45c-.78-.15-1.57-.3-2.37-.43s-1.57-.24-2.32-.31-1.49-.11-2.19-.13a11.94,11.94,0,0,0-3.64.46c-.51.16-1,.32-1.43.5a11,11,0,0,0-1.19.57,10.29,10.29,0,0,0-1.6,1.13c-.18.16-.33.28-.42.37Zm4.6-10.67a21.16,21.16,0,0,0,.14-2.12q0-1.08-.06-2.13c0-.7-.13-1.39-.23-2-.19-1.29-.43-2.41-.62-3.21s-.33-1.27-.33-1.27-.29.28-.74.79l-.77.91c-.28.36-.58.77-.92,1.18a25,25,0,0,0-2,2.91,13.23,13.23,0,0,0-1.53,3.36,13.5,13.5,0,0,0-.21,6.43,17.92,17.92,0,0,0,.54,2.15c.17.51.3.82.3.82l.2,0a3.72,3.72,0,0,0,.52-.15,9.84,9.84,0,0,0,1.7-.85,10.23,10.23,0,0,0,1-.75,6,6,0,0,0,1-1,8.82,8.82,0,0,0,1.57-3A10.73,10.73,0,0,0,158.79,154.14Zm15.33-4.89a12.74,12.74,0,0,0,2.89,1.42,12.39,12.39,0,0,0,7.12.35,10.16,10.16,0,0,0,1.6-.56,16.67,16.67,0,0,0,1.6-.77c.53-.29,1.06-.61,1.58-.93.12-.09.25-.17.38-.25l.36-.27.72-.54a31.3,31.3,0,0,0,3.78-3.47c.91-1,1.45-1.66,1.45-1.66s-1.58,0-3.78.14-5.07.28-7.62.67c-.51.08-1,.16-1.5.26s-1,.2-1.42.32a11.5,11.5,0,0,0-3.34,1.43,9.89,9.89,0,0,0-3.42,3.23C174.25,149,174.12,149.25,174.12,149.25Zm.89-6.18a8.75,8.75,0,0,0,.63-3.31,9,9,0,0,0-.07-1.25c-.06-.44-.13-.88-.23-1.33a24.93,24.93,0,0,0-1-3.45c-.1-.28-.21-.55-.31-.81s-.24-.53-.35-.79c-.24-.52-.47-1-.7-1.45a33.88,33.88,0,0,0-1.69-3s-.31.57-.71,1.5l-.31.77c-.06.14-.11.28-.17.43s-.12.29-.19.44c-.24.6-.49,1.28-.71,2-.14.42-.24.86-.37,1.27s-.23.87-.32,1.31a13.54,13.54,0,0,0-.27,2.68,13.9,13.9,0,0,0,1.66,6.23,14.06,14.06,0,0,0,1.67,2.61,4.37,4.37,0,0,0,.63-.37,7.53,7.53,0,0,0,1.39-1.27A8.74,8.74,0,0,0,175,143.07Zm20.16-13.71a12,12,0,0,0,3.7-1.38c.32-.19.63-.39.94-.6s.59-.46.88-.72c.57-.51,1.14-1.07,1.68-1.66.26-.29.52-.59.77-.9l.38-.46.34-.47c.46-.64.88-1.27,1.25-1.89s.73-1.19,1-1.73.52-1,.72-1.46c.38-.82.58-1.34.58-1.34s-.54.16-1.42.45-2.09.69-3.45,1.17-2.93,1-4.39,1.63c-.73.31-1.45.62-2.13,1s-1.35.66-1.95,1a13.48,13.48,0,0,0-1.57,1.11c-.23.19-.45.39-.65.58l-.57.59a9.63,9.63,0,0,0-1.61,2.26,6.92,6.92,0,0,0-.45,1q-.18.45-.3.78a5,5,0,0,0-.18.72,12.7,12.7,0,0,0,3.17.57c.48,0,1,0,1.55,0A11.47,11.47,0,0,0,195.17,129.36Zm-7.32-6.94c0-.12,0-.26,0-.39a7.83,7.83,0,0,0-.05-.82,9.85,9.85,0,0,0-.35-1.75,12.3,12.3,0,0,0-.74-1.85c-.32-.63-.69-1.26-1.08-1.87a29.54,29.54,0,0,0-2.55-3.36c-.89-1-1.73-1.82-2.35-2.39s-1-.9-1-.9-.07.39-.15,1c-.05.32-.09.72-.12,1.17s-.12.93-.16,1.46c-.08,1-.06,2.26-.05,3.47a16.39,16.39,0,0,0,.19,1.84q.08.45.18.9c.07.3.14.59.22.88a12.24,12.24,0,0,0,1.5,3.13,14.68,14.68,0,0,0,1,1.31c.33.4.64.77.95,1.1a15.45,15.45,0,0,0,2.36,2.06,5.71,5.71,0,0,0,.5-.54,5.14,5.14,0,0,0,.49-.66,7.07,7.07,0,0,0,.49-.92,9,9,0,0,0,.73-2.54Zm18.29-19.36a12.77,12.77,0,0,0,1.38-1.73c.21-.32.42-.65.62-1a11.53,11.53,0,0,0,.55-1A31.1,31.1,0,0,0,210.31,95c.37-1.37.6-2.61.76-3.51s.22-1.45.22-1.45l-1.27.8c-.78.5-1.85,1.2-3,2a47.67,47.67,0,0,0-7.11,5.64c-.11.12-.23.24-.33.36l-.32.37a9.18,9.18,0,0,0-.57.74,8.9,8.9,0,0,0-.87,1.44,9.45,9.45,0,0,0-.55,1.36,11.81,11.81,0,0,0-.36,1.23,8.22,8.22,0,0,0-.19,2.63,12.53,12.53,0,0,0,3.2-.27,12.94,12.94,0,0,0,3.08-1,11.46,11.46,0,0,0,1.63-.95A9.54,9.54,0,0,0,206.14,103.06Zm-12.08.52a6,6,0,0,0,.11-1.23,9,9,0,0,0-.14-1.41,9.39,9.39,0,0,0-.42-1.52,7.83,7.83,0,0,0-.82-1.6A17.28,17.28,0,0,0,190,94.7a26.21,26.21,0,0,0-3.42-2.58c-1.12-.73-2.14-1.31-2.88-1.71s-1.2-.61-1.2-.61,0,.39.11,1a24.46,24.46,0,0,0,.5,2.62,20.45,20.45,0,0,0,.9,3.37c.23.58.42,1.16.68,1.72a11.56,11.56,0,0,0,.88,1.62,13,13,0,0,0,1.12,1.42,12.47,12.47,0,0,0,1.2,1.21,17.08,17.08,0,0,0,2.5,1.82,16.45,16.45,0,0,0,2.87,1.38A7.64,7.64,0,0,0,194.06,103.58ZM207.7,69.32c0-.94,0-1.87,0-2.73a21.48,21.48,0,0,0-.15-2.3c-.17-1.31-.33-2.16-.33-2.16s-1,1.15-2.41,2.81c-.66.82-1.49,1.79-2.27,2.79s-1.61,2.07-2.31,3.11c-.14.21-.27.43-.4.63s-.28.42-.41.62c-.26.42-.5.83-.71,1.23a11.22,11.22,0,0,0-1.13,3.35,9.42,9.42,0,0,0-.15,2.74,13.18,13.18,0,0,0,.35,1.87A5.93,5.93,0,0,0,198,82a13,13,0,0,0,3-1.12,12.15,12.15,0,0,0,2.64-1.8A11.46,11.46,0,0,0,206.07,76a11.87,11.87,0,0,0,1.13-3.18c.13-.57.23-1.16.32-1.74A15.39,15.39,0,0,0,207.7,69.32ZM191.39,81.73a15.33,15.33,0,0,0,3.12.56,4.84,4.84,0,0,0,.14-.71,6.84,6.84,0,0,0,0-1.84,9.12,9.12,0,0,0-.77-2.53,8.94,8.94,0,0,0-2.13-2.66A12.82,12.82,0,0,0,189.52,73a26.88,26.88,0,0,0-3.36-1.56c-.56-.22-1.12-.42-1.66-.6s-1.09-.34-1.58-.47a34.82,34.82,0,0,0-3.44-.76s.24.59.71,1.5c.1.23.25.46.38.73s.26.55.41.84c.31.58.66,1.21,1.08,1.85l.72,1.11c.25.37.51.74.79,1.09s.59.71.91,1l.49.49.49.46A15.17,15.17,0,0,0,191.39,81.73ZM198.14,50a12.81,12.81,0,0,0,.21-2.19,20.27,20.27,0,0,0-.17-2.3c-.11-.77-.25-1.55-.42-2.3a9.49,9.49,0,0,0-.29-1.11c-.1-.35-.21-.7-.32-1-.23-.68-.46-1.31-.67-1.89s-.42-1.08-.63-1.48c-.39-.83-.66-1.32-.66-1.32s-.23.49-.59,1.32c-.19.41-.4.9-.64,1.44L193.17,41c-.56,1.31-1.14,2.76-1.65,4.21l-.37,1.08c-.12.36-.24.73-.34,1.08a18.31,18.31,0,0,0-.51,2.07,10.42,10.42,0,0,0-.18,1.86,12.69,12.69,0,0,0,.06,1.66,9.28,9.28,0,0,0,.69,2.66,11,11,0,0,0,.85,1.72,7.15,7.15,0,0,0,.43.61,11.92,11.92,0,0,0,2.56-1.89,12.07,12.07,0,0,0,2-2.46A10.9,10.9,0,0,0,198.14,50Zm-19,8.2a14,14,0,0,0,3.44,1,17.54,17.54,0,0,0,3.11.25,16.23,16.23,0,0,0,3.18-.31,6.85,6.85,0,0,0-.08-.72,7.83,7.83,0,0,0-.56-1.76,8.65,8.65,0,0,0-1.5-2.21,7.51,7.51,0,0,0-1.21-1.07,10.14,10.14,0,0,0-1.6-.91,14.22,14.22,0,0,0-1.94-.71l-1-.28-1.1-.21a36.07,36.07,0,0,0-4.32-.41c-1.33,0-2.55,0-3.4.07s-1.38.12-1.38.12.26.31.72.81l.38.4.42.48c.31.33.66.7,1,1.08s.81.77,1.26,1.17.89.8,1.38,1.19a15.53,15.53,0,0,0,1.56,1.09A11.36,11.36,0,0,0,179.15,58.24Zm4.62-28a8.1,8.1,0,0,0,.06-1,7.15,7.15,0,0,0-.06-1,15.26,15.26,0,0,0-1.19-4.34,31.4,31.4,0,0,0-2.22-4c-.82-1.18-1.61-2.18-2.2-2.9-.3-.35-.54-.63-.7-.83s-.28-.29-.28-.29-.09.55-.22,1.43-.32,2.13-.48,3.53-.3,2.92-.42,4.48a24.45,24.45,0,0,0,0,4.37,11.32,11.32,0,0,0,.85,3.45,9.9,9.9,0,0,0,.68,1.3,8.42,8.42,0,0,0,.71,1.08,8.56,8.56,0,0,0,1.91,1.9,12,12,0,0,0,3.55-7.15ZM167.76,41a15,15,0,0,0,3.58.11,17.23,17.23,0,0,0,3.08-.58,16,16,0,0,0,3-1.13,7.65,7.65,0,0,0-1.33-2.21,10.32,10.32,0,0,0-.87-.9,7.73,7.73,0,0,0-1.18-.84,9.49,9.49,0,0,0-3.25-1.2,18.29,18.29,0,0,0-4.27-.09l-1.1.11c-.37,0-.75.12-1.11.18-.72.12-1.42.27-2.08.43-1.31.31-2.44.65-3.24.92-.4.12-.72.24-.95.32l-.34.14.24.16.66.45a23.51,23.51,0,0,0,2.34,1.4,23.41,23.41,0,0,0,3.21,1.6l.44.18.44.18.89.32A13.47,13.47,0,0,0,167.76,41Zm-4.54-24a11.56,11.56,0,0,0,.37-3.1,11.68,11.68,0,0,0-.18-1.82,9.68,9.68,0,0,0-.57-1.94,14.7,14.7,0,0,0-1.7-2.93l-.55-.72-.28-.35c-.1-.12-.2-.22-.31-.33-.4-.45-.82-.88-1.24-1.29-.7-.68-1.41-1.31-2.08-1.87s-1.34-1-1.9-1.39C153.66.45,152.91,0,152.91,0s.19,1.52.54,3.62c.17,1,.39,2.25.64,3.47s.52,2.55.85,3.76a23.42,23.42,0,0,0,.91,2.72,11.53,11.53,0,0,0,3.84,5,9.1,9.1,0,0,0,1.68,1c.22.11.39.18.52.23l.19.07s.16-.28.39-.78A12.08,12.08,0,0,0,163.22,17Zm-12.07,9.71a16.2,16.2,0,0,0,1.81-.32,16.91,16.91,0,0,0,1.66-.52,17.94,17.94,0,0,0,2.81-1.39,15.6,15.6,0,0,0,1.86-1.31c.44-.35.68-.57.68-.57l-.12-.16c-.08-.1-.2-.24-.35-.4a9.33,9.33,0,0,0-1.46-1.2,9,9,0,0,0-5.93-1.42,16.92,16.92,0,0,0-2.66.57A27.49,27.49,0,0,0,146,21.3c-1.11.54-2.14,1.11-3,1.63a33.14,33.14,0,0,0-2.88,1.92s.62.24,1.62.53c.49.15,1.1.31,1.77.46s1.36.35,2.12.49A19.61,19.61,0,0,0,151.15,26.69ZM116.87,174.85l.09.86,1.6-.19,1.84-.23c.35,0,.73-.07,1.13-.15l1.24-.21,2.81-.48,3.1-.69c.53-.12,1.08-.22,1.62-.38l1.66-.45c1.11-.31,2.25-.59,3.35-1a90.45,90.45,0,0,0,12-4.68l2.14-1.06c.33-.15.63-.3.9-.44l.74-.41,1.4-.77,1.4-.77c.88-.51,2.11-1.29,3.6-2.2A98.27,98.27,0,0,0,167.63,154a96.45,96.45,0,0,0,9-9c.3-.31.55-.65.79-.94l.71-.86c.44-.55.83-1,1.15-1.41s.54-.71.7-.92l.25-.34.94-1.26c.29-.41.67-.89,1.06-1.47s.82-1.23,1.3-1.94l.74-1.12c.26-.39.49-.8.75-1.22l1.57-2.65c.5-1,1-1.92,1.55-2.91.13-.25.26-.5.4-.75l.36-.76.72-1.55A80,80,0,0,0,194,113.25l.34-1.18a10.13,10.13,0,0,0,.3-1.06c.16-.67.3-1.26.42-1.74l.36-1.51s0-.14.1-.4.12-.64.21-1.13.2-1.07.33-1.75.29-1.45.38-2.29.23-1.75.36-2.71c0-.24.06-.49.1-.74s0-.5.06-.75q.06-.76.12-1.56c.22-2.11.22-4.37.3-6.63-.08-2.27-.08-4.53-.3-6.64q-.06-.8-.12-1.56c0-.25,0-.5-.06-.75s-.07-.49-.1-.74c-.13-1-.25-1.87-.36-2.71s-.27-1.61-.38-2.28-.24-1.28-.33-1.76-.15-.87-.21-1.13-.1-.4-.1-.4L195,70.32c-.12-.48-.26-1.07-.42-1.74a10.13,10.13,0,0,0-.3-1.06c-.11-.38-.22-.77-.34-1.17a79.68,79.68,0,0,0-4.39-11.69l-.72-1.55-.36-.76c-.14-.25-.27-.5-.4-.75l-1.55-2.91L185,46c-.26-.42-.49-.83-.75-1.22s-.5-.76-.74-1.12l-1.3-1.94c-.39-.58-.77-1.06-1.06-1.47L180.18,39l-.25-.33c-.16-.22-.38-.54-.7-.93l-1.15-1.4-.71-.87c-.24-.29-.49-.63-.79-.94a96.45,96.45,0,0,0-9-9A95.26,95.26,0,0,0,157.45,18c-1.49-.92-2.72-1.7-3.6-2.21l-1.4-.77-1.4-.77-.74-.41-.9-.45-.24-.12c0-.07,0-.15,0-.24a7.79,7.79,0,0,0-.48-1.79,8.26,8.26,0,0,0-1.33-2.3,9.65,9.65,0,0,0-2.69-2.14,15.85,15.85,0,0,0-4-1.41c-.72-.17-1.46-.31-2.17-.42-.35-.06-.7-.11-1.06-.15l-1-.1c-1.36-.1-2.55-.13-3.4-.12s-1.37,0-1.37,0,.23.33.65.86,1,1.23,1.73,2.05c.35.4.74.83,1.17,1.24s.89.84,1.33,1.27a14.19,14.19,0,0,0,3.07,2.17A15.18,15.18,0,0,0,146,13.84a16.42,16.42,0,0,0,2.29,0h.06l.66.33.88.43.73.4,1.39.77,1.38.77c.88.5,2.08,1.28,3.56,2.17a88.45,88.45,0,0,1,18.95,16.44c.29.31.54.63.79.93l.69.86,1.14,1.39c.32.37.53.7.7.91l.24.33.93,1.25c.29.41.67.88,1.05,1.45s.82,1.22,1.28,1.93l.74,1.1c.25.38.48.8.73,1.21l1.57,2.63L187.28,52l.4.74c.11.26.23.51.36.76.23.51.47,1,.71,1.53a81.17,81.17,0,0,1,4.34,11.57c.12.41.24.79.35,1.16s.21.72.28,1.05l.41,1.72c.24,1,.36,1.5.36,1.5s0,.14.1.4.12.63.21,1.11.2,1.07.33,1.74.29,1.43.38,2.26.23,1.74.35,2.69c0,.24.07.48.1.73s0,.49.07.75q0,.75.12,1.53c.21,2.1.21,4.34.28,6.58s-.07,4.47-.28,6.56c-.05.53-.09,1-.12,1.55,0,.25,0,.5-.07.75s-.06.48-.1.72c-.12,1-.24,1.85-.35,2.69s-.26,1.59-.38,2.26-.23,1.26-.33,1.74-.15.86-.21,1.12-.1.39-.1.39-.12.54-.36,1.5c-.11.48-.25,1.06-.41,1.72-.07.33-.17.68-.28,1s-.23.75-.35,1.16a80.29,80.29,0,0,1-4.34,11.57c-.24.51-.48,1-.71,1.53-.13.25-.25.5-.36.76l-.4.74-1.53,2.87-1.57,2.63c-.25.42-.48.83-.73,1.21l-.74,1.1c-.46.71-.9,1.36-1.28,1.93s-.76,1.05-1.05,1.45l-.93,1.25-.24.33c-.17.21-.38.54-.7.92s-.7.85-1.14,1.39c-.21.27-.45.55-.69.85s-.5.63-.79.93a88,88,0,0,1-18.95,16.43c-1.48.9-2.68,1.68-3.56,2.18l-1.38.77-1.39.77-.73.4-.88.43-2.12,1.05A89.93,89.93,0,0,1,135,171.13c-1.09.39-2.22.66-3.32,1l-1.63.44c-.54.15-1.09.25-1.62.38l-3.06.67-2.78.48-1.22.21c-.4.08-.78.1-1.12.15l-1.83.22ZM95.6,72.24c3.62,0,6-2,6-4.64,0-2-1.32-3.51-4.15-3.51-3.4,0-5.32,2.3-6.19,5.51-2-.94-3.92-2.11-7-2.11-5,0-7.25,3-7.25,5.17,0,1.47.87,2.08,1.77,2.08A1.79,1.79,0,0,0,80,74.28c0-1-.38-5.32,4.45-5.32,2.57,0,4.34,1.21,6.42,2.15a21.82,21.82,0,0,0-.26,3.59c0,.72,0,1.73,0,2.79-2.3,0-4.11,0-4.49.08-.87.07-1.21.56-1.21,1.05a.61.61,0,0,0,.23.46s2.61,0,5.51,0v1.74c0,4.94-.53,8.94-3.89,8.94a2.36,2.36,0,0,1-2.52-2.49,2.7,2.7,0,0,1,2.45-2.68,1.06,1.06,0,0,0,.11-.45,1.33,1.33,0,0,0-1.43-1.29c-1.66,0-3.17,1.78-3.17,4s1.51,4.38,5,4.38c6,0,8.11-6,8.23-12.2h3.28c.76,0,1-.41,1-.87a.84.84,0,0,0-.3-.68h-4c-.08-1.66-.19-3.58-.23-5.21Zm2.23-6.71c1.09,0,1.66.67,1.66,1.92,0,1.74-1.13,3.32-3.93,3.32h-.3C95.37,67.6,96.09,65.53,97.83,65.53ZM122.25,80a1,1,0,0,0-.9-.94.45.45,0,0,0-.27.11,6.11,6.11,0,0,1-4.72,5.06,15.22,15.22,0,0,0,.34-3.4c0-5.36-2.49-8.38-6.11-8.38A4.4,4.4,0,0,0,106,76.06h-.15c-2.26,0-3.43,3.06-3.43,5.81,0,5.44,3.55,8.23,7.24,8.23a6.42,6.42,0,0,0,6.23-4.34A7.2,7.2,0,0,0,122.25,80Zm-11.7,8.65c-2.49,0-3.7-3.17-3.74-7.21a8.6,8.6,0,0,0,6.8,4.38C113,87.46,112.06,88.63,110.55,88.63ZM110,73.87c2.61,0,4.12,4.34,4.12,8.27a13.87,13.87,0,0,1-.15,2.15,7,7,0,0,1-6.38-7.18C107.61,75.3,108.51,73.87,110,73.87Zm23.45,12.91c-.65,1-1.21,1.43-1.93,1.43-1.13,0-1.58-1.43-1.58-3.66a47.13,47.13,0,0,1,1-8c.22-1.7-1.1-2.91-4.23-2.91a25.2,25.2,0,0,0-3.93.38,1.65,1.65,0,0,0-1.62-1.43,1.38,1.38,0,0,0-1.47,1.36,1.81,1.81,0,0,0,1.66,1.81v.41a18.91,18.91,0,0,1-.27,3c0,.42.46,1.06.87,1.06a.31.31,0,0,0,.3-.23,39.63,39.63,0,0,0,.65-4.41,26.84,26.84,0,0,1,3.13-.19H127a30.38,30.38,0,0,0-1.51,8.49c0,4.08,1.85,6.16,5,6.16,2.68,0,3.82-1.4,3.82-2.38A.79.79,0,0,0,133.47,86.78ZM61.09,102.85a1.88,1.88,0,0,1-1.68.61,6.21,6.21,0,0,1-1.78-.3l0-.94c-.08-.18-.42-.3-.81-.3a1.13,1.13,0,0,0-1.15.66s0,0,0,0a8.13,8.13,0,0,0-1.48-.15c-2.42,0-3.34,1.37-3.34,2.27,0,.53.29.87.7.87a.68.68,0,0,0,.42-.12,2,2,0,0,1,2.29-2.34,6.61,6.61,0,0,1,1.29.15c-.08.81-.12,2.07-.12,3.44,0,2.66.14,5.63.49,6.34a.94.94,0,0,0,.9.49.89.89,0,0,0,.9-.54c-.13-1-.19-3.63-.19-5.59,0-1.27,0-2.56.06-3.56a7,7,0,0,0,1.83.27c1,0,2.06-.22,2.06-.9A.4.4,0,0,0,61.09,102.85Zm8.76,5.46a.2.2,0,0,0-.17.08c-.52,2.51-1.29,3.92-2,3.92s-.69-1.07-.69-2.12c0-.86.08-2.1.08-2.51a1.78,1.78,0,0,0-2-1.71c-1.64,0-2.54,2.71-3.05,4.66,0-.76-.07-1.56-.07-2.32,0-2.2.14-4.19.26-5.32a.89.89,0,0,0-.78-.33,1.15,1.15,0,0,0-1.12.65,20.86,20.86,0,0,0-.34,4.24,12.94,12.94,0,0,0,.51,4.49,1.14,1.14,0,0,0,1,.68.77.77,0,0,0,.73-.33c.39-2,1.58-5.59,2.48-5.59.32,0,.39.41.39,1,0,.73-.15,1.85-.15,2.7a2.3,2.3,0,0,0,2.3,2.61c1.34,0,2.26-1.21,2.87-4.29A.45.45,0,0,0,69.85,108.31ZM75.41,111a2.7,2.7,0,0,1-2.16,1.35c-1.4,0-2-1.3-2-2.81,0-.25,0-.51,0-.75a2.45,2.45,0,0,0,1.35.46,1.87,1.87,0,0,0,1.8-2,1.74,1.74,0,0,0-1.9-1.78c-1.91,0-3.27,2-3.27,4.13a3.35,3.35,0,0,0,3.53,3.49c1.84,0,2.93-1.22,2.93-1.81A.3.3,0,0,0,75.41,111Zm-2.67-4.9c.45,0,.7.47.7,1s-.36,1.46-1,1.46a1.71,1.71,0,0,1-1-.44C71.63,107,72.15,106.09,72.74,106.09Zm16.33,2.22a.13.13,0,0,0-.14.08,2.63,2.63,0,0,1-2.56,2.38,4.8,4.8,0,0,0,.7-2.41,2.5,2.5,0,0,0-2.31-2.64c-1.32,0-2.31,1.32-2.93,3.35a19.75,19.75,0,0,1,.29-3.29c0-.15-.39-.28-.82-.28a1,1,0,0,0-1,.57,20,20,0,0,0-.44,4.68,17.36,17.36,0,0,0,.56,5,.8.8,0,0,0,.8.41c.5,0,1.08-.24,1.1-.44a21.48,21.48,0,0,1-.41-3.48,2.09,2.09,0,0,0,1.48.63,3.66,3.66,0,0,0,2.59-1.53h.17a3.11,3.11,0,0,0,3.36-2.62A.46.46,0,0,0,89.07,108.31Zm-4.67-1.88c.44,0,.65.54.65,1.32a8.65,8.65,0,0,1-.58,2.9,18.4,18.4,0,0,0-2-.24,2.38,2.38,0,0,0-.49,0C82.54,108.34,83.56,106.43,84.4,106.43Zm-1.35,5.88a1,1,0,0,1-1-.85c0-.32.27-.42.68-.42a10.35,10.35,0,0,1,1.44.17C83.88,111.87,83.47,112.31,83.05,112.31Zm15.3-4a.18.18,0,0,0-.17.08c-.47,2.38-1.25,3.9-1.91,3.9s-.82-1.37-.82-2.81.17-3,.22-3.49c-.12-.26-.56-.39-1-.39a1,1,0,0,0-.93.45,6.21,6.21,0,0,0-.15.9,2.29,2.29,0,0,0-1.9-.93c-2.27,0-3.19,2.1-3.19,3.63a3.09,3.09,0,0,0,3,3.24c1.39,0,2-1.21,2.22-2.44.27,1.39.92,2.59,2.22,2.59s2.21-1.19,2.82-4.27A.42.42,0,0,0,98.35,108.31Zm-6.58,3.86c-.78,0-1.28-1.23-1.28-2.59s.49-2.86,1.54-2.86a1.92,1.92,0,0,1,1.49,1.15C93.47,109,93.06,112.17,91.77,112.17ZM105,108.26c-.07,0-.12,0-.16.13a2,2,0,0,1-1.81,1.9,8.05,8.05,0,0,0-2.09-4.4c-.08-.5-.67-.7-1.27-.7s-1.27.25-1.27.64a.34.34,0,0,0,.05.17,12.62,12.62,0,0,1-.25,2.39.53.53,0,0,0,.37.46.15.15,0,0,0,.15-.08,19.16,19.16,0,0,0,.41-2.6,12.71,12.71,0,0,1,1.85,3.89,13.75,13.75,0,0,0-2.78-.6c-.66,0-1.1.29-1.1,1.17a3,3,0,0,0,3,2.75A2.89,2.89,0,0,0,103,111a2.45,2.45,0,0,0,2.37-2.22A.45.45,0,0,0,105,108.26Zm-5.09,4.54a2,2,0,0,1-1.78-2,.59.59,0,0,1,.68-.67,11.86,11.86,0,0,1,2.29.55c0,.17,0,.32,0,.47C101.11,112.28,100.53,112.8,99.89,112.8Zm8.52-8.73h-1.54c0-.57.09-1.07.14-1.39s-.44-.41-.85-.41a1.1,1.1,0,0,0-1,.5,6.27,6.27,0,0,0-.24,1.3h-1.06c-.34,0-.58.2-.58.39s.14.31.46.31h1.12c-.07,1-.12,2.06-.12,3,0,3.88.59,5.59,1.85,5.59.5,0,.81-.22.83-.51-.46-.3-.68-2.4-.68-4.81,0-1,0-2.27.1-3.32h1.44c.39,0,.56-.21.56-.38A.37.37,0,0,0,108.41,104.07Zm8.07,2a2.23,2.23,0,0,0-2.15,1.56v-.44c0-2.56.71-4.34,1.86-4.34.9,0,1.26,1.1,1.24,1.93a.88.88,0,0,0,1-.88c0-.78-.81-1.66-2.37-1.66-2.51,0-3.9,2.54-3.9,5.59s1.47,5.06,3.74,5.06a3.37,3.37,0,0,0,3.34-3.67A2.86,2.86,0,0,0,116.48,106.07Zm-.36,6.17c-1,0-1.69-1.27-1.69-2.66s.58-2.86,1.9-2.85c1.12,0,1.81,1.09,1.81,2.6S117.4,112.24,116.12,112.24Zm17.34-3.47a.46.46,0,0,0-.36-.49.2.2,0,0,0-.16.11,5.67,5.67,0,0,1-2.45,4.06c0-.38,0-.75,0-1.16v-1.61c0-.88,0-1.85-.1-2.71,0-.41-.65-.63-1.17-.63s-.73.12-.77.32c-.3,3.21-1.13,5.23-2,5.23-.65,0-.83-1.12-.83-2.41a28.49,28.49,0,0,1,.23-3.27c0-.26-.42-.43-.84-.43a1.16,1.16,0,0,0-1.09.58,12.45,12.45,0,0,0-.29,2.88,6.42,6.42,0,0,0,.26,2,2.33,2.33,0,0,0,2.25,1.41c.92,0,1.82-.53,2.37-2.92,0,.65,0,1.24,0,1.8s0,1.32-.05,1.9c-1.54.61-2.9,1-2.9,2.22,0,.86.68,1.42,1.7,1.42,1.71,0,2.74-1.34,3.1-3.79A6.08,6.08,0,0,0,133.46,108.77Zm-6.22,7.68a.7.7,0,0,1-.71-.75c0-.83.83-1.15,1.93-1.58C128.31,115.56,128,116.45,127.24,116.45Zm12.51-8.11a.33.33,0,0,0-.16,0c-.49,2.55-1.78,4.09-3.17,4.09-1.1,0-1.91-1-1.91-3,0-.25,0-.49,0-.73a2.35,2.35,0,0,0,1.44.44,1.85,1.85,0,0,0,1.7-2,1.72,1.72,0,0,0-1.87-1.78c-2,0-3.29,1.91-3.29,4.13a3.42,3.42,0,0,0,3.55,3.6c2.4,0,3.57-2.21,4.05-4.46A.39.39,0,0,0,139.75,108.34ZM136,106.09c.44,0,.72.47.72,1.08s-.35,1.43-1,1.43a1.8,1.8,0,0,1-1-.44C134.85,107,135.36,106.09,136,106.09Zm13,2.22a.18.18,0,0,0-.17.08c-.47,2.38-1.25,3.9-1.91,3.9s-.82-1.37-.82-2.81.17-3,.22-3.49c-.12-.26-.56-.39-1-.39a1,1,0,0,0-.93.45,6.21,6.21,0,0,0-.15.9,2.29,2.29,0,0,0-1.9-.93c-2.27,0-3.19,2.1-3.19,3.63a3.09,3.09,0,0,0,2.95,3.24c1.39,0,2-1.21,2.22-2.44.27,1.39.92,2.59,2.22,2.59s2.21-1.19,2.82-4.27A.42.42,0,0,0,148.93,108.31Zm-6.58,3.86c-.78,0-1.28-1.23-1.28-2.59s.49-2.86,1.54-2.86a1.92,1.92,0,0,1,1.49,1.15C144.05,109,143.64,112.17,142.35,112.17Zm13.43-3.89a.22.22,0,0,0-.19.11c-.47,2.38-1.31,4.07-2.12,4.07-.51,0-.71-.66-.71-1.64a23,23,0,0,1,.42-3.61c.1-.77-.47-1.31-1.9-1.31a10.91,10.91,0,0,0-1.76.17.74.74,0,0,0-.73-.64.62.62,0,0,0-.66.61.82.82,0,0,0,.75.81V107a11.91,11.91,0,0,1-.12,1.35c0,.19.2.48.37.48a.16.16,0,0,0,.15-.1,16.85,16.85,0,0,0,.29-2,13.11,13.11,0,0,1,1.43-.08h.4a13.48,13.48,0,0,0-.68,3.81c0,1.83.85,2.75,2.28,2.75s2.45-1.26,3.12-4.49C156.13,108.44,156,108.28,155.78,108.28Zm2.55-2.39c-.1-.5-.69-.7-1.27-.7s-1.27.25-1.27.64a.32.32,0,0,0,0,.17,11.36,11.36,0,0,1-.23,2.39c0,.17.2.48.37.48a.16.16,0,0,0,.15-.1,20.74,20.74,0,0,0,.41-2.58,13.39,13.39,0,0,1,1.83,3.88,14.21,14.21,0,0,0-2.76-.59c-.67,0-1.11.27-1.11,1.15a3,3,0,0,0,3,2.75,2.87,2.87,0,0,0,3-2.87A7.79,7.79,0,0,0,158.33,105.89Zm-1.05,6.91a1.94,1.94,0,0,1-1.76-2c0-.48.25-.67.64-.67a12.45,12.45,0,0,1,2.31.58,3.49,3.49,0,0,1,0,.44C158.5,112.26,157.93,112.8,157.28,112.8Z"/></g></g></svg>